PathFileType	4	(X/Y/Z)	/Users/itak/Documents/Research/Walk-IL/dataset/trc/00337_00011.trc
DataRate	CameraRate	NumFrames	NumMarkers	Units	OrigDataRate	OrigDataStartFrame	OrigNumFrames
100.000000	100.000000	4	53	mm	100.000000	409	818
Frame#	Time	RPSI			LPSI			L3			STRN			T10			C7			CLAV			RBAK			LBAK			LSHO			LUPA			LAEL			LAOL			LWTS			LWPS			LFRA			LIFD			LHPS			LHTS			RSHO			RUPA			RAEL			RAOL			RWTS			RWPS			RFRA			RIFD			RHTS			RHPS			RBHD			LFHD			RFHD			LBHD			LHIP			RHIP			RASI			LASI			LKNE			LTHI			LANK			LTIP			LTOE			LMT1			LMT5			LHEE			RKNE			RTHI			RANK			RTIP			RTOE			RMT1			RMT5			RHEE			
		X1	Y1	Z1	X2	Y2	Z2	X3	Y3	Z3	X4	Y4	Z4	X5	Y5	Z5	X6	Y6	Z6	X7	Y7	Z7	X8	Y8	Z8	X9	Y9	Z9	X10	Y10	Z10	X11	Y11	Z11	X12	Y12	Z12	X13	Y13	Z13	X14	Y14	Z14	X15	Y15	Z15	X16	Y16	Z16	X17	Y17	Z17	X18	Y18	Z18	X19	Y19	Z19	X20	Y20	Z20	X21	Y21	Z21	X22	Y22	Z22	X23	Y23	Z23	X24	Y24	Z24	X25	Y25	Z25	X26	Y26	Z26	X27	Y27	Z27	X28	Y28	Z28	X29	Y29	Z29	X30	Y30	Z30	X31	Y31	Z31	X32	Y32	Z32	X33	Y33	Z33	X34	Y34	Z34	X35	Y35	Z35	X36	Y36	Z36	X37	Y37	Z37	X38	Y38	Z38	X39	Y39	Z39	X40	Y40	Z40	X41	Y41	Z41	X42	Y42	Z42	X43	Y43	Z43	X44	Y44	Z44	X45	Y45	Z45	X46	Y46	Z46	X47	Y47	Z47	X48	Y48	Z48	X49	Y49	Z49	X50	Y50	Z50	X51	Y51	Z51	X52	Y52	Z52	X53	Y53	Z53	

410	4.09	745.9210815429688	951.6263427734375	-262.9644165039062	696.4481201171875	953.2926025390625	-130.4908752441406	728.9007568359375	1005.232727050781	-196.5208892822266	511.0227661132812	1190.355834960938	-283.1011352539062	727.1198120117188	1123.430908203125	-172.0127105712891	679.701904296875	1371.074951171875	-171.4057006835938	546.8690185546875	1314.638061523438	-253.3098297119141	755.7214965820312	1235.591064453125	-210.0237579345703	642.6820678710938	1330.329956054688	-78.32279205322266	541.0656127929688	1344.746337890625	-69.26494598388672	529.1401977539062	1223.526245117188	-3.487427711486816	512.5426025390625	1019.992858886719	-2.044090747833252	595.6336059570312	1008.594848632812	-19.29141426086426	448.5407409667969	785.8097534179688	-101.7649993896484	452.1222229003906	770.8627319335938	-34.5885124206543	495.283203125	915.3767700195312	-6.522742748260498	441.3590393066406	625.7835693359375	-116.3626937866211	454.71875	700.856201171875	-42.2878532409668	425.6393432617188	708.1480712890625	-98.82671356201172	709.5926513671875	1363.589477539062	-340.5479125976562	757.8262329101562	1304.099243164062	-387.9923400878906	820.8462524414062	1045.392456054688	-414.7587890625	787.3548583984375	1030.7744140625	-326.0647277832031	765.65185546875	801.5498046875	-469.2222290039062	840.6637573242188	805.02783203125	-486.7276611328125	825.687744140625	979.2500610351562	-440.2834777832031	808.8423461914062	632.637939453125	-478.0386657714844	783.3292236328125	699.9680786132812	-498.0879821777344	851.7259521484375	721.0021362304688	-494.0875549316406	658.8268432617188	1582.435424804688	-276.0850524902344	457.6549682617188	1577.34130859375	-225.2565460205078	501.4389038085938	1582.403930664062	-316.2486572265625	621.6415405273438	1572.601928710938	-136.7514038085938	568.9520263671875	878.9627685546875	-90.26051330566406	716.1868286132812	910.3228759765625	-400.0727233886719	603.811279296875	939.2251586914062	-398.0993957519531	483.3443908691406	905.4072265625	-193.1715545654297	593.355224609375	424.7172241210938	-137.3408813476562	571.1326293945312	561.674072265625	-127.5741500854492	877.9600219726562	141.3515472412109	15.24780654907227	732.6268920898438	267.4192504882812	-54.75445175170898	845.3386840820312	28.60387802124023	-134.4561767578125	902.8352661132812	48.51604080200195	-119.2309341430664	817.961669921875	50.65548324584961	-41.18972015380859	937.7625732421875	176.0688018798828	-14.24690055847168	562.1170043945312	462.5897521972656	-468.3852844238281	615.2106323242188	718.9950561523438	-464.5407409667969	572.5482788085938	41.33639526367188	-458.8772888183594	537.4493408203125	345.4879760742188	-473.57421875	373.7630004882812	47.5630989074707	-490.921630859375	405.8207397460938	40.27229690551758	-429.8149719238281	487.476806640625	28.88671493530273	-513.8924560546875	595.609619140625	44.21695327758789	-393.2943420410156	
411	4.1	738.2874755859375	953.696044921875	-270.6106872558594	691.7539672851562	956.1021118164062	-135.0527191162109	721.4348754882812	1006.522583007812	-204.9382476806641	503.1624145507812	1191.967407226562	-287.8915405273438	720.7501831054688	1125.192504882812	-180.5952301025391	673.5044555664062	1372.796875	-178.952880859375	539.333740234375	1316.269287109375	-258.7001953125	748.8138427734375	1237.3125	-218.9830322265625	638.008056640625	1332.05712890625	-85.32173919677734	536.4843139648438	1346.454467773438	-74.68574523925781	525.9189453125	1225.402465820312	-8.490942001342773	511.061767578125	1021.873413085938	-6.363495349884033	593.8192749023438	1011.160278320312	-25.52020072937012	448.9245300292969	784.2479248046875	-100.5908889770508	454.4067993164062	770.9572143554688	-33.22941970825195	495.2008972167969	916.8975830078125	-9.08809757232666	445.7196655273438	623.7034912109375	-111.3250427246094	458.55908203125	700.8592529296875	-39.38548278808594	428.0455932617188	706.09716796875	-95.33025360107422	700.513916015625	1365.449951171875	-348.5535583496094	747.8277587890625	1305.965209960938	-397.06201171875	809.3277587890625	1046.918090820312	-425.2807006835938	777.662109375	1032.493286132812	-335.9440002441406	752.2967529296875	803.1829833984375	-478.5582275390625	826.97265625	806.4697265625	-497.5245666503906	813.4041748046875	980.7857055664062	-450.8841857910156	794.9917602539062	634.1709594726562	-488.0943908691406	769.1434936523438	701.5185546875	-507.7103271484375	837.5260009765625	722.1497192382812	-504.8961181640625	651.0244140625	1584.088500976562	-282.705078125	450.5350341796875	1578.8642578125	-229.3960418701172	493.1890869140625	1584.058471679688	-320.9259948730469	615.6250610351562	1574.104370117188	-143.0162048339844	563.7479248046875	880.0125732421875	-95.84297180175781	707.0369873046875	912.3207397460938	-407.3761291503906	594.6705322265625	940.8490600585938	-404.2410583496094	477.1303100585938	906.8880004882812	-197.7642517089844	579.4158325195312	424.7395935058594	-145.8498382568359	559.8277587890625	561.6728515625	-135.3135681152344	870.9852294921875	150.6034240722656	6.707976818084717	722.39892578125	271.5960693359375	-62.9412727355957	842.5313720703125	27.38777732849121	-136.562744140625	898.15576171875	53.24934768676758	-124.164436340332	814.98486328125	54.01405715942383	-44.51654052734375	929.007568359375	186.2882843017578	-25.05710029602051	557.8931884765625	462.57666015625	-472.6311950683594	607.5228271484375	720.0909423828125	-470.3405456542969	572.546630859375	41.1458854675293	-459.2987365722656	534.3863525390625	345.0530700683594	-476.6185913085938	373.6174621582031	46.68767166137695	-491.0456848144531	405.8113098144531	40.13191986083984	-430.0003662109375	487.626953125	28.67832183837891	-514.2182006835938	595.6619262695312	44.5749397277832	-393.7483825683594	
412	4.11	730.802001953125	955.6824951171875	-278.1304931640625	686.93798828125	958.3955688476562	-140.1868896484375	714.1224365234375	1007.903930664062	-213.2374267578125	495.3263854980469	1193.513549804688	-292.4015502929688	714.43994140625	1126.984497070312	-189.1853637695312	667.3143920898438	1374.5478515625	-186.4429626464844	531.7999877929688	1317.850952148438	-263.8795776367188	741.93212890625	1239.087524414062	-227.952392578125	633.4557495117188	1333.818969726562	-92.26017761230469	532.04638671875	1348.143920898438	-79.94396209716797	522.9305419921875	1227.272094726562	-13.32394599914551	509.6655578613281	1023.764831542969	-10.52578258514404	592.0325317382812	1013.682189941406	-31.6004810333252	449.3593444824219	782.9585571289062	-99.45600891113281	456.7033081054688	771.3201293945312	-31.9846134185791	495.13037109375	918.53662109375	-11.62640857696533	450.2566528320312	622.0388793945312	-106.5123138427734	462.4359436035156	701.19189453125	-36.68132019042969	430.5053100585938	704.4179077148438	-91.97207641601562	691.269287109375	1367.31689453125	-356.4856567382812	737.5852661132812	1307.847290039062	-406.0937194824219	797.5845336914062	1048.477905273438	-435.8367004394531	767.9389038085938	1034.232666015625	-345.82275390625	738.5669555664062	804.891357421875	-487.8209838867188	812.837646484375	807.9337768554688	-508.3589477539062	800.8447265625	982.3392333984375	-461.49365234375	780.5557861328125	635.7566528320312	-498.2063293457031	754.4388427734375	703.1464233398438	-517.3125610351562	822.7930297851562	723.3104858398438	-515.7758178710938	643.1801147460938	1585.725341796875	-289.2252502441406	443.3983764648438	1580.3623046875	-233.3964538574219	484.9082641601562	1585.679443359375	-325.4562072753906	609.6017456054688	1575.612426757812	-149.1556701660156	558.8347778320312	880.9727172851562	-101.2866821289062	697.9991455078125	914.22314453125	-414.5052795410156	585.6217041015625	942.3499145507812	-410.1510620117188	471.1427917480469	908.3718872070312	-202.0804290771484	564.7975463867188	424.8670959472656	-154.3412933349609	548.1134643554688	561.6910400390625	-143.0083160400391	863.0585327148438	160.0437622070312	-2.449125289916992	711.3684692382812	275.8177795410156	-71.49817657470703	838.7884521484375	26.21915054321289	-139.2277679443359	892.4810791015625	58.39678955078125	-129.7257385253906	811.2457275390625	58.04083251953125	-48.41138458251953	919.3347778320312	196.4509124755859	-36.42659378051758	554.15869140625	462.4766235351562	-476.3313903808594	600.1138305664062	721.004150390625	-475.8644104003906	572.5552368164062	40.94347381591797	-459.64990234375	531.743408203125	344.6036071777344	-479.3593139648438	373.5137329101562	46.04383087158203	-491.0160827636719	405.8239135742188	40.09420013427734	-430.05078125	487.7516479492188	28.55180168151855	-514.45166015625	595.7456665039062	44.8185920715332	-394.1348571777344	
413	4.12	723.4675903320312	957.56005859375	-285.5139770507812	681.873779296875	960.0204467773438	-146.0968780517578	706.9502563476562	1009.351501464844	-221.3911895751953	487.5192260742188	1194.972412109375	-296.624755859375	708.203369140625	1128.780883789062	-197.7665100097656	661.1334838867188	1376.304443359375	-193.8665008544922	524.2809448242188	1319.360717773438	-268.8392639160156	735.0811157226562	1240.887817382812	-236.9158630371094	629.019287109375	1335.58447265625	-99.13300323486328	527.7572631835938	1349.789184570312	-85.03257751464844	520.1928100585938	1229.104736328125	-17.98800849914551	508.3807983398438	1025.633666992188	-14.50759983062744	590.28857421875	1016.113708496094	-37.50975036621094	449.8275146484375	781.9389038085938	-98.38714599609375	458.985107421875	771.9130249023438	-30.88044548034668	495.0927429199219	920.2484130859375	-14.11493492126465	454.8459167480469	620.7844848632812	-102.0196685791016	466.2891540527344	701.8118286132812	-34.22990798950195	432.9595947265625	703.1168212890625	-88.82470703125	681.8677368164062	1369.160888671875	-364.3270874023438	727.1058349609375	1309.714599609375	-415.0654907226562	785.62255859375	1050.049194335938	-446.4332580566406	758.2072143554688	1035.960205078125	-355.711181640625	724.4781494140625	806.65185546875	-496.9904174804688	798.2599487304688	809.40087890625	-519.2239990234375	788.0145263671875	983.8853149414062	-472.1139221191406	765.5340576171875	637.3731689453125	-508.3584594726562	739.224609375	704.8353271484375	-526.8731689453125	807.5432739257812	724.4901123046875	-526.733642578125	635.3006591796875	1587.323364257812	-295.640869140625	436.2621765136719	1581.819213867188	-237.2475128173828	476.6033325195312	1587.250732421875	-329.8314819335938	603.5819091796875	1577.105224609375	-155.1626739501953	554.1867065429688	881.8306884765625	-106.5974426269531	689.0987548828125	916.0130004882812	-421.4513549804688	576.6802368164062	943.7124633789062	-415.8258972167969	465.3465270996094	909.8421020507812	-206.1372528076172	549.6278076171875	425.177978515625	-162.7642974853516	536.0579833984375	561.7880249023438	-150.6112365722656	854.2379150390625	169.5006256103516	-12.19598484039307	699.6105346679688	280.0640563964844	-80.37352752685547	833.9390258789062	25.24871635437012	-142.5575714111328	885.687744140625	63.84720611572266	-135.999755859375	806.624267578125	62.65982818603516	-52.96294784545898	908.8245849609375	206.3833770751953	-48.31871795654297	550.8313598632812	462.3163452148438	-479.5067749023438	592.9715576171875	721.7233276367188	-481.0976257324219	572.5664672851562	40.74466705322266	-459.9400634765625	529.45068359375	344.1565856933594	-481.8175964355469	373.4373779296875	45.5697021484375	-490.8772888183594	405.8424377441406	40.11264419555664	-430.0028686523438	487.8479919433594	28.47553253173828	-514.6087036132812	595.8360595703125	44.9627571105957	-394.4512023925781	
